<svg id="visual" viewBox="0 0 960 540" width="960" height="540" xmlns="http://www.w3.org/2000/svg" xmlns:xlink="http://www.w3.org/1999/xlink" version="1.1"><rect x="0" y="0" width="960" height="540" fill="#000000"></rect><path d="M0 247L22.8 246.8C45.7 246.7 91.3 246.3 137 249.3C182.7 252.3 228.3 258.7 274 272.8C319.7 287 365.3 309 411.2 303C457 297 503 263 548.8 253.7C594.7 244.3 640.3 259.7 686 275.8C731.7 292 777.3 309 823 303.2C868.7 297.3 914.3 268.7 937.2 254.3L960 240L960 541L937.2 541C914.3 541 868.7 541 823 541C777.3 541 731.7 541 686 541C640.3 541 594.7 541 548.8 541C503 541 457 541 411.2 541C365.3 541 319.7 541 274 541C228.3 541 182.7 541 137 541C91.3 541 45.7 541 22.8 541L0 541Z" fill="#252525"></path><path d="M0 277L22.8 284.5C45.7 292 91.3 307 137 308.3C182.7 309.7 228.3 297.3 274 293.8C319.7 290.3 365.3 295.7 411.2 305.5C457 315.3 503 329.7 548.8 325.7C594.7 321.7 640.3 299.3 686 304.3C731.7 309.3 777.3 341.7 823 350.8C868.7 360 914.3 346 937.2 339L960 332L960 541L937.2 541C914.3 541 868.7 541 823 541C777.3 541 731.7 541 686 541C640.3 541 594.7 541 548.8 541C503 541 457 541 411.2 541C365.3 541 319.7 541 274 541C228.3 541 182.7 541 137 541C91.3 541 45.7 541 22.8 541L0 541Z" fill="#4b4b4b"></path><path d="M0 393L22.8 382.7C45.7 372.3 91.3 351.7 137 343C182.7 334.3 228.3 337.7 274 341.7C319.7 345.7 365.3 350.3 411.2 355.7C457 361 503 367 548.8 368.5C594.7 370 640.3 367 686 363.5C731.7 360 777.3 356 823 350C868.7 344 914.3 336 937.2 332L960 328L960 541L937.2 541C914.3 541 868.7 541 823 541C777.3 541 731.7 541 686 541C640.3 541 594.7 541 548.8 541C503 541 457 541 411.2 541C365.3 541 319.7 541 274 541C228.3 541 182.7 541 137 541C91.3 541 45.7 541 22.8 541L0 541Z" fill="#747474"></path><path d="M0 369L22.8 380.2C45.7 391.3 91.3 413.7 137 413.8C182.7 414 228.3 392 274 385.2C319.7 378.3 365.3 386.7 411.2 398C457 409.3 503 423.7 548.8 431.3C594.7 439 640.3 440 686 437.5C731.7 435 777.3 429 823 420.2C868.7 411.3 914.3 399.7 937.2 393.8L960 388L960 541L937.2 541C914.3 541 868.7 541 823 541C777.3 541 731.7 541 686 541C640.3 541 594.7 541 548.8 541C503 541 457 541 411.2 541C365.3 541 319.7 541 274 541C228.3 541 182.7 541 137 541C91.3 541 45.7 541 22.8 541L0 541Z" fill="#a0a0a0"></path><path d="M0 415L22.8 421.2C45.7 427.3 91.3 439.7 137 440.8C182.7 442 228.3 432 274 432C319.7 432 365.3 442 411.2 440.7C457 439.3 503 426.7 548.8 424.8C594.7 423 640.3 432 686 437C731.7 442 777.3 443 823 448.5C868.7 454 914.3 464 937.2 469L960 474L960 541L937.2 541C914.3 541 868.7 541 823 541C777.3 541 731.7 541 686 541C640.3 541 594.7 541 548.8 541C503 541 457 541 411.2 541C365.3 541 319.7 541 274 541C228.3 541 182.7 541 137 541C91.3 541 45.7 541 22.8 541L0 541Z" fill="#cfcfcf"></path><path d="M0 501L22.8 502.7C45.7 504.3 91.3 507.7 137 500.8C182.7 494 228.3 477 274 473.8C319.7 470.7 365.3 481.3 411.2 489C457 496.7 503 501.3 548.8 501.2C594.7 501 640.3 496 686 492.2C731.7 488.3 777.3 485.7 823 483.2C868.7 480.7 914.3 478.3 937.2 477.2L960 476L960 541L937.2 541C914.3 541 868.7 541 823 541C777.3 541 731.7 541 686 541C640.3 541 594.7 541 548.8 541C503 541 457 541 411.2 541C365.3 541 319.7 541 274 541C228.3 541 182.7 541 137 541C91.3 541 45.7 541 22.8 541L0 541Z" fill="#ffffff"></path></svg>