<svg id="visual" viewBox="0 0 900 600" width="900" height="600" xmlns="http://www.w3.org/2000/svg" xmlns:xlink="http://www.w3.org/1999/xlink" version="1.1"><rect x="0" y="0" width="900" height="600" fill="#070707"></rect><path d="M0 363L21.5 366.8C43 370.7 86 378.3 128.8 374.5C171.7 370.7 214.3 355.3 257.2 341.2C300 327 343 314 385.8 323.8C428.7 333.7 471.3 366.3 514.2 368.8C557 371.3 600 343.7 642.8 337.2C685.7 330.7 728.3 345.3 771.2 346C814 346.7 857 333.3 878.5 326.7L900 320L900 601L878.5 601C857 601 814 601 771.2 601C728.3 601 685.7 601 642.8 601C600 601 557 601 514.2 601C471.3 601 428.7 601 385.8 601C343 601 300 601 257.2 601C214.3 601 171.7 601 128.8 601C86 601 43 601 21.5 601L0 601Z" fill="#1e1e1e"></path><path d="M0 412L21.5 407.3C43 402.7 86 393.3 128.8 383.3C171.7 373.3 214.3 362.7 257.2 365.2C300 367.7 343 383.3 385.8 396.7C428.7 410 471.3 421 514.2 424.7C557 428.3 600 424.7 642.8 426.8C685.7 429 728.3 437 771.2 433.8C814 430.7 857 416.3 878.5 409.2L900 402L900 601L878.5 601C857 601 814 601 771.2 601C728.3 601 685.7 601 642.8 601C600 601 557 601 514.2 601C471.3 601 428.7 601 385.8 601C343 601 300 601 257.2 601C214.3 601 171.7 601 128.8 601C86 601 43 601 21.5 601L0 601Z" fill="#444444"></path><path d="M0 471L21.5 458.7C43 446.3 86 421.7 128.8 409.2C171.7 396.7 214.3 396.3 257.2 395.8C300 395.3 343 394.7 385.8 405C428.7 415.3 471.3 436.7 514.2 445.8C557 455 600 452 642.8 448.5C685.7 445 728.3 441 771.2 437.2C814 433.3 857 429.7 878.5 427.8L900 426L900 601L878.5 601C857 601 814 601 771.2 601C728.3 601 685.7 601 642.8 601C600 601 557 601 514.2 601C471.3 601 428.7 601 385.8 601C343 601 300 601 257.2 601C214.3 601 171.7 601 128.8 601C86 601 43 601 21.5 601L0 601Z" fill="#6f6f6f"></path><path d="M0 455L21.5 463.7C43 472.3 86 489.7 128.8 492.2C171.7 494.7 214.3 482.3 257.2 477.8C300 473.3 343 476.7 385.8 476.7C428.7 476.7 471.3 473.3 514.2 477C557 480.7 600 491.3 642.8 490.7C685.7 490 728.3 478 771.2 479C814 480 857 494 878.5 501L900 508L900 601L878.5 601C857 601 814 601 771.2 601C728.3 601 685.7 601 642.8 601C600 601 557 601 514.2 601C471.3 601 428.7 601 385.8 601C343 601 300 601 257.2 601C214.3 601 171.7 601 128.8 601C86 601 43 601 21.5 601L0 601Z" fill="#9c9c9c"></path><path d="M0 538L21.5 529.2C43 520.3 86 502.7 128.8 500.3C171.7 498 214.3 511 257.2 512.7C300 514.3 343 504.7 385.8 499.8C428.7 495 471.3 495 514.2 496.5C557 498 600 501 642.8 503.5C685.7 506 728.3 508 771.2 506C814 504 857 498 878.5 495L900 492L900 601L878.5 601C857 601 814 601 771.2 601C728.3 601 685.7 601 642.8 601C600 601 557 601 514.2 601C471.3 601 428.7 601 385.8 601C343 601 300 601 257.2 601C214.3 601 171.7 601 128.8 601C86 601 43 601 21.5 601L0 601Z" fill="#cccccc"></path><path d="M0 562L21.5 558.7C43 555.3 86 548.7 128.8 549.3C171.7 550 214.3 558 257.2 556.5C300 555 343 544 385.8 542C428.7 540 471.3 547 514.2 550.8C557 554.7 600 555.3 642.8 557.7C685.7 560 728.3 564 771.2 565.8C814 567.7 857 567.3 878.5 567.2L900 567L900 601L878.5 601C857 601 814 601 771.2 601C728.3 601 685.7 601 642.8 601C600 601 557 601 514.2 601C471.3 601 428.7 601 385.8 601C343 601 300 601 257.2 601C214.3 601 171.7 601 128.8 601C86 601 43 601 21.5 601L0 601Z" fill="#ffffff"></path></svg>